<?xml version="1.0" encoding="utf-8"?>
<!-- Generator: Adobe Illustrator 16.0.0, SVG Export Plug-In . SVG Version: 6.00 Build 0)  -->
<!DOCTYPE svg PUBLIC "-//W3C//DTD SVG 1.1//EN" "http://www.w3.org/Graphics/SVG/1.1/DTD/svg11.dtd">
<svg version="1.1" id="Ebene_1" xmlns="http://www.w3.org/2000/svg" xmlns:xlink="http://www.w3.org/1999/xlink" x="0px" y="0px"
	 width="360px" height="360px" viewBox="0 0 360 360" enable-background="new 0 0 360 360" xml:space="preserve">
<g>
	<path fill="#990000" d="M149.571,356.204c1.881,1.754,3.938,3.318,5.918,4.967c0.746-0.307-1.713-5.418-0.963-5.721
		c-17.159-27.125,8.179-112.41,16.283-100.021c5.974,3.326,0.948,72.375,14.228,74.344c-5.283-31.818,18.942-52.678,29.511-74.025
		c0.939-6.272-0.463-7.082-3.602-12.396c-5.623-9.515-8.254-25.897-5.239-32.619c6.581-8.737,17.241,14.72,16.911,33.976
		c4.052-2.771,6.963-32.373,2.921-44.383c-3.771-11.195-1.849-19.973,5.453-28.81c2.913-3.531,5.257-5.739,10.052-6.563
		c13.814-2.378,41.322-4.02,54.984-7.21c2.441-0.572,10.882-5.842,11.988-7.874c13.045-11.343,17.75-31.92,17.086-37.264
		c-0.67-5.343-8.709-6.035-4.73-5.126c3.98,0.909-56.807-8.516-78.861-13.874c-2.42-0.588-5.373-2.532-8.029-4.645
		c-65.687,37.58-109.951,108.333-109.951,189.433c0,18.444,2.299,36.354,6.61,53.458
		C135.633,340.85,142.201,349.321,149.571,356.204z"/>
	<path fill="#2b2b2b" d="M75.186,278.392c0-90.244,44.875-170,113.52-218.198c-18.193-5.427-34.088-11.951-45.906-26.946
		c-6.713-8.516,2.194-20.459-3.432-33.248C130.161,11.765,113.773,31.87,111,45.254c-1.433,6.915-1.531,11.614-7.939,14.266
		c-17.191,7.118-30.919,14.31-48.057,35.546c-21.053,29.099-19.238,51.941-19.238,51.941C50.238,119.368,58,116.604,65.899,113.692
		c8.859,3.01-28.455,48.321-31.063,77.737c14.336-23.552,22.544-23.22,26.048-17.173c2.682,6.327-8.6,17.747-11.177,25.732
		c-1.876,5.81,1.657,16.07,5.399,21.08c17.106,22.908-4.062,20.828,13.53,48.947c0.881,1.409,2.812,5.34,6.612,13.354
		C75.218,281.711,75.186,280.056,75.186,278.392z"/>
	<path fill="#2b2b2b" d="M177.145,75.194c5.036,17.766,24.402,21.304,36.267,18.82C210.058,76.503,190.422,78.979,177.145,75.194z"
		/>
	<path fill="#2b2b2b" d="M190.415,56.292c-15.768-4.235-37.241-13.225-45.026-26.522c-2.301-7.929,7.192-15.943,15.154-26.346
		c2.794,5.141,4.122,6.675,4.149,13.355C164.737,27.013,155.896,32.212,190.415,56.292z"/>
</g>
</svg>
